<svg fill="none" height="630" width="630" viewBox="0 0 630 630" xmlns="http://www.w3.org/2000/svg">
 <style type="text/css">.st0{fill:#00ACD7;}</style>

 <g>
  <title>background</title>
  <rect fill="none" id="canvas_background" height="633" width="634" y="-1" x="-1"/>
 </g>
 <g>
  <title>Layer 1</title>
  <g stroke="null" id="svg_1">
   <g stroke="null" id="svg_2">
    <g stroke="null" id="svg_3">
     <g stroke="null" id="svg_4">
      <path stroke="null" id="svg_5" d="m48.64894,244.88935c-1.22965,0 -1.53706,-0.93761 -0.92224,-2.34402l6.45566,-12.65773c0.61483,-1.40641 2.15189,-2.34402 3.38154,-2.34402l109.74628,0c1.22965,0 1.53706,1.40641 0.92224,2.81283l-5.22601,12.18893c-0.61483,1.40641 -2.15189,2.81283 -3.07413,2.81283l-111.28334,-0.4688z" class="st0"/>
     </g>
    </g>
   </g>
   <g stroke="null" id="svg_6">
    <g stroke="null" id="svg_7">
     <g stroke="null" id="svg_8">
      <path stroke="null" id="svg_9" d="m2.22964,288.01941c-1.22965,0 -1.53706,-0.93761 -0.92224,-2.34402l6.45566,-12.65773c0.61483,-1.40641 2.15189,-2.34402 3.38154,-2.34402l140.18012,0c1.22965,0 1.84448,1.40641 1.53706,2.81283l-2.4593,11.25132c-0.30741,1.87522 -1.53706,2.81283 -2.76671,2.81283l-145.40613,0.4688z" class="st0"/>
     </g>
    </g>
   </g>
   <g stroke="null" id="svg_10">
    <g stroke="null" id="svg_11">
     <g stroke="null" id="svg_12">
      <path stroke="null" id="svg_13" d="m76.62348,331.14947c-1.22965,0 -1.53706,-1.40641 -0.92224,-2.81283l4.30378,-11.72012c0.61483,-1.40641 1.84448,-2.81283 3.07413,-2.81283l61.48251,0c1.22965,0 1.84448,1.40641 1.84448,3.28163l-0.61483,11.25132c0,1.87522 -1.22965,3.28163 -2.15189,3.28163l-67.01593,-0.4688z" class="st0"/>
     </g>
    </g>
   </g>
   <g stroke="null" id="svg_14">
    <g stroke="null" id="CXHf1q_3_">
     <g stroke="null" id="svg_15">
      <g stroke="null" id="svg_16">
       <path stroke="null" id="svg_17" d="m395.7177,236.45086c-19.36699,7.50088 -32.58573,13.12654 -51.64531,20.62742c-4.61119,1.87522 -4.9186,2.34402 -8.91496,-4.68805c-4.61119,-7.96968 -7.99273,-13.12654 -14.44839,-17.81459c-19.36699,-14.53295 -38.11916,-10.31371 -55.64167,7.03207c-20.90405,20.62742 -31.66349,51.09974 -31.35608,89.07294c0.30741,37.5044 17.2151,68.44553 41.50069,73.60238c20.90405,4.21924 38.42657,-7.03207 52.26013,-30.94113c2.76671,-5.15685 5.22601,-10.78251 8.30014,-17.34578c-11.06685,0 -24.90042,0 -59.33062,0c-6.45566,0 -7.99273,-6.09446 -5.84084,-14.06415c3.99636,-14.53295 11.37426,-38.91081 15.67804,-51.09974c0.92224,-2.81283 3.07413,-7.50088 7.68531,-7.50088c15.67804,0 73.4716,0 111.89817,0c-0.61483,12.65773 -0.61483,25.31547 -1.84448,37.9732c-3.38154,33.75396 -11.68168,64.69509 -25.20783,91.88577c-22.1337,44.53647 -51.03048,72.19597 -87.61258,79.69685c-30.12643,6.09446 -58.10097,-2.81283 -82.69397,-30.94113c-22.74853,-26.25308 -35.65986,-60.94465 -39.04139,-104.0747c-3.99636,-51.09974 5.84084,-97.04263 26.13007,-137.35986c21.82629,-43.59886 50.72307,-71.25836 86.07551,-81.10326c28.89678,-7.96968 56.56391,-2.81283 81.46432,22.97144c16.29286,16.40817 27.97454,38.91081 35.65986,66.1015c1.84448,4.21924 0.61483,6.56327 -3.07413,7.96968z" class="st0"/>
      </g>
      <g stroke="null" id="svg_18">
       <path stroke="null" id="svg_19" d="m497.47126,495.70001c-27.97454,-0.93761 -53.48978,-13.12654 -75.00866,-41.25484c-18.13734,-23.90905 -29.5116,-54.38138 -33.20055,-90.47936c-5.53343,-52.97496 3.99636,-99.85546 24.90042,-141.5791c22.44112,-45.00528 49.49342,-68.44553 86.07551,-78.29043c31.35608,-8.43849 60.86768,-3.75044 87.61258,23.90905c24.28559,25.31547 39.34881,59.53823 43.34517,104.54351c5.22601,63.28867 -6.76308,114.85722 -35.35244,158.92489c-20.28923,31.40993 -45.18964,51.09974 -73.77901,60.00704c-8.30014,2.34402 -16.60028,2.81283 -24.593,4.21924zm73.16419,-189.39721c-0.30741,-6.09446 -0.30741,-10.78251 -0.92224,-15.47056c-5.53343,-46.41169 -33.50797,-72.66477 -62.71216,-62.35106c-28.58937,9.8449 -47.03412,37.5044 -53.7972,81.57207c-5.53343,36.56679 6.14825,73.60238 28.28195,88.60414c16.90769,11.25132 33.81538,9.8449 50.10824,-2.81283c24.28559,-19.221 37.50433,-49.22452 39.04139,-89.54175z" class="st0"/>
      </g>
     </g>
    </g>
   </g>
  </g>
 </g>
</svg>