<!-- <svg width="715" height="631" xmlns="http://www.w3.org/2000/svg"> -->
<svg fill="none" height="600" viewBox="0 0 700 600" width="600" xmlns="http://www.w3.org/2000/svg">
 <style type="text/css">.st0{fill:#00ACD7;}</style>

 <g>
  <title>background</title>
  <rect fill="none" id="canvas_background" height="633" width="717" y="-1" x="-1"/>
 </g>
 <g>
  <title>Layer 1</title>
  <g stroke="null" id="svg_1">
   <g stroke="null" id="svg_2">
    <g stroke="null" id="svg_3">
     <g stroke="null" id="svg_4">
      <path stroke="null" id="svg_5" d="m55.06792,212.77963c-1.3874,0 -1.73425,-1.14612 -1.04055,-2.8653l7.28385,-15.47264c0.6937,-1.71918 2.42795,-2.8653 3.81535,-2.8653l123.8255,0c1.3874,0 1.73425,1.71918 1.04055,3.43836l-5.89645,14.89958c-0.6937,1.71918 -2.42795,3.43836 -3.4685,3.43836l-125.55975,-0.57306z" class="st0"/>
     </g>
    </g>
   </g>
   <g stroke="null" id="svg_6">
    <g stroke="null" id="svg_7">
     <g stroke="null" id="svg_8">
      <path stroke="null" id="svg_9" d="m2.69355,265.50123c-1.3874,0 -1.73425,-1.14612 -1.04055,-2.8653l7.28385,-15.47264c0.6937,-1.71918 2.42795,-2.8653 3.81535,-2.8653l158.16366,0c1.3874,0 2.0811,1.71918 1.73425,3.43836l-2.7748,13.75346c-0.34685,2.29224 -1.73425,3.43836 -3.12165,3.43836l-164.06011,0.57306z" class="st0"/>
     </g>
    </g>
   </g>
   <g stroke="null" id="svg_10">
    <g stroke="null" id="svg_11">
     <g stroke="null" id="svg_12">
      <path stroke="null" id="svg_13" d="m86.63128,318.22282c-1.3874,0 -1.73425,-1.71918 -1.04055,-3.43836l4.8559,-14.32652c0.6937,-1.71918 2.0811,-3.43836 3.4685,-3.43836l69.37003,0c1.3874,0 2.0811,1.71918 2.0811,4.01143l-0.6937,13.75346c0,2.29224 -1.3874,4.01143 -2.42795,4.01143l-75.61333,-0.57306z" class="st0"/>
     </g>
    </g>
   </g>
   <g stroke="null" id="svg_14">
    <g stroke="null" id="CXHf1q_3_">
     <g stroke="null" id="svg_15">
      <g stroke="null" id="svg_16">
       <path stroke="null" id="svg_17" d="m446.66171,202.46454c-21.85156,9.16897 -36.76611,16.0457 -58.27082,25.21468c-5.20275,2.29224 -5.5496,2.8653 -10.05865,-5.73061c-5.20275,-9.74203 -9.0181,-16.0457 -16.30196,-21.77631c-21.85156,-17.76489 -43.00942,-12.60734 -62.77987,8.59591c-23.58581,25.21468 -35.72556,62.46363 -35.37871,108.88156c0.34685,45.84487 19.42361,83.66688 46.82477,89.97055c23.58581,5.15755 43.35627,-8.59591 58.96452,-37.82201c3.12165,-6.30367 5.89645,-13.1804 9.36495,-21.20325c-12.4866,0 -28.09486,0 -66.94207,0c-7.28385,0 -9.0181,-7.44979 -6.59015,-17.19182c4.50905,-17.76489 12.83345,-47.56405 17.68936,-62.46363c1.04055,-3.43836 3.4685,-9.16897 8.67125,-9.16897c17.68936,0 82.89718,0 126.25345,0c-0.6937,15.47264 -0.6937,30.94528 -2.0811,46.41793c-3.81535,41.26038 -13.1803,79.08239 -28.44171,112.31992c-24.97321,54.44078 -57.57712,88.25137 -98.85229,97.42034c-33.99131,7.44979 -65.55467,-3.43836 -93.30268,-37.82201c-25.66691,-32.09141 -40.23461,-74.49791 -44.04997,-127.2195c-4.50905,-62.46363 6.59015,-118.62359 29.48226,-167.90682c24.62636,-53.29466 57.23027,-87.10524 97.11804,-99.13952c32.60391,-9.74203 63.82042,-3.43836 91.91528,28.07998c18.38306,20.05713 31.56336,47.56405 40.23461,80.80158c2.0811,5.15755 0.6937,8.02285 -3.4685,9.74203z" class="st0"/>
      </g>
      <g stroke="null" id="svg_18">
       <path stroke="null" id="svg_19" d="m561.46911,519.36717c-31.56336,-1.14612 -60.35192,-16.0457 -84.63143,-50.42935c-20.46416,-29.2261 -33.29761,-66.47505 -37.45981,-110.60074c-6.2433,-64.75587 4.50905,-122.06195 28.09486,-173.06437c25.32006,-55.01384 55.84287,-83.66688 97.11804,-95.70116c35.37871,-10.31509 68.67633,-4.58449 98.85229,29.2261c27.40116,30.94528 44.39682,72.77872 48.90587,127.79256c5.89645,77.36321 -7.6307,140.3999 -39.88776,194.26762c-22.89211,38.39507 -50.98697,62.46363 -83.24403,73.35178c-9.36495,2.8653 -18.72991,3.43836 -27.74801,5.15755zm82.55033,-231.51657c-0.34685,-7.44979 -0.34685,-13.1804 -1.04055,-18.91101c-6.2433,-56.73302 -37.80666,-88.82443 -70.75743,-76.21709c-32.25706,12.03428 -53.06807,45.84487 -60.69877,99.71258c-6.2433,44.69874 6.937,89.97055 31.91021,108.30849c19.07676,13.75346 38.15351,12.03428 56.53657,-3.43836c27.40116,-23.49549 42.31572,-60.17139 44.04997,-109.45462z" class="st0"/>
      </g>
     </g>
    </g>
   </g>
  </g>
 </g>
</svg>