<svg width="700" height="600" xmlns="http://www.w3.org/2000/svg">
 <style type="text/css">.st0{fill:#00ACD7;}</style>

 <g>
  <title>background</title>
  <rect x="-1" y="-1" width="702" height="602" id="canvas_background" fill="none"/>
 </g>
 <g>
  <title>Layer 1</title>
  <g stroke="null" id="svg_1">
   <g stroke="null" id="svg_2">
    <g stroke="null" id="svg_3">
     <g stroke="null" id="svg_4">
      <path stroke="null" class="st0" d="m53.93592,212.77963c-1.35819,0 -1.69773,-1.14612 -1.01864,-2.8653l7.13048,-15.47264c0.67909,-1.71918 2.37683,-2.8653 3.73501,-2.8653l121.21824,0c1.35819,0 1.69773,1.71918 1.01864,3.43836l-5.77229,14.89958c-0.67909,1.71918 -2.37683,3.43836 -3.39547,3.43836l-122.91597,-0.57306z" id="svg_5"/>
     </g>
    </g>
   </g>
   <g stroke="null" id="svg_6">
    <g stroke="null" id="svg_7">
     <g stroke="null" id="svg_8">
      <path stroke="null" class="st0" d="m2.66434,265.50123c-1.35819,0 -1.69773,-1.14612 -1.01864,-2.8653l7.13048,-15.47264c0.67909,-1.71918 2.37683,-2.8653 3.73501,-2.8653l154.83338,0c1.35819,0 2.03728,1.71918 1.69773,3.43836l-2.71637,13.75346c-0.33955,2.29224 -1.69773,3.43836 -3.05592,3.43836l-160.60567,0.57306z" id="svg_9"/>
     </g>
    </g>
   </g>
   <g stroke="null" id="svg_10">
    <g stroke="null" id="svg_11">
     <g stroke="null" id="svg_12">
      <path stroke="null" class="st0" d="m84.83468,318.22282c-1.35819,0 -1.69773,-1.71918 -1.01864,-3.43836l4.75365,-14.32652c0.67909,-1.71918 2.03728,-3.43836 3.39547,-3.43836l67.90938,0c1.35819,0 2.03728,1.71918 2.03728,4.01143l-0.67909,13.75346c0,2.29224 -1.35819,4.01143 -2.37683,4.01143l-74.02122,-0.57306l0,-0.00002z" id="svg_13"/>
     </g>
    </g>
   </g>
   <g stroke="null" id="svg_14">
    <g stroke="null" id="CXHf1q_3_">
     <g stroke="null" id="svg_15">
      <g stroke="null" id="svg_16">
       <path stroke="null" class="st0" d="m437.28433,202.46454c-21.39145,9.16897 -35.99197,16.0457 -57.04387,25.21468c-5.0932,2.29224 -5.43275,2.8653 -9.84686,-5.73061c-5.0932,-9.74203 -8.82822,-16.0457 -15.95871,-21.77631c-21.39145,-17.76489 -42.10382,-12.60734 -61.45798,8.59591c-23.08919,25.21468 -34.97332,62.46363 -34.63378,108.88156c0.33955,45.84487 19.01463,83.66688 45.83883,89.97055c23.08919,5.15755 42.44336,-8.59591 57.72297,-37.82201c3.05592,-6.30367 5.77229,-13.1804 9.16776,-21.20325c-12.22368,0 -27.5033,0 -65.53254,0c-7.13048,0 -8.82822,-7.44979 -6.45139,-17.19182c4.41411,-17.76489 12.56323,-47.56405 17.31689,-62.46363c1.01864,-3.43836 3.39547,-9.16897 8.48867,-9.16897c17.31689,0 81.1517,0 123.59507,0c-0.67909,15.47264 -0.67909,30.94528 -2.03728,46.41793c-3.73501,41.26038 -12.90278,79.08239 -27.84284,112.31992c-24.44738,54.44078 -56.36478,88.25137 -96.77086,97.42034c-33.27559,7.44979 -64.17436,-3.43836 -91.3381,-37.82201c-25.12647,-32.09141 -39.38743,-74.49791 -43.12246,-127.2195c-4.41411,-62.46363 6.45139,-118.62359 28.86148,-167.90682c24.10783,-53.29466 56.02523,-87.10524 95.07313,-99.13952c31.9174,-9.74203 62.47662,-3.43836 89.97992,28.07998c17.99599,20.05713 30.89876,47.56405 39.38743,80.80158c2.03728,5.15755 0.67909,8.02285 -3.39547,9.74203l-0.00001,-0.00003z" id="svg_17"/>
      </g>
      <g stroke="null" id="svg_18">
       <path stroke="null" class="st0" d="m549.67435,519.36717c-30.89876,-1.14612 -59.08115,-16.0457 -82.84944,-50.42935c-20.03327,-29.2261 -32.5965,-66.47505 -36.67106,-110.60074c-6.11184,-64.75587 4.41411,-122.06195 27.5033,-173.06437c24.78692,-55.01384 54.66705,-83.66688 95.07313,-95.70116c34.63378,-10.31509 67.23029,-4.58449 96.77086,29.2261c26.8242,30.94528 43.462,72.77872 47.87611,127.79256c5.77229,77.36321 -7.47003,140.3999 -39.04789,194.26762c-22.4101,38.39507 -49.91339,62.46363 -81.49125,73.35178c-9.16776,2.8653 -18.33553,3.43836 -27.16375,5.15755l-0.00002,0.00001zm80.81216,-231.51657c-0.33955,-7.44979 -0.33955,-13.1804 -1.01864,-18.91101c-6.11184,-56.73302 -37.01061,-88.82443 -69.26757,-76.21709c-31.57786,12.03428 -51.95067,45.84487 -59.4207,99.71258c-6.11184,44.69874 6.79093,89.97055 31.23831,108.30849c18.67508,13.75346 37.35015,12.03428 55.34614,-3.43836c26.8242,-23.49549 41.42472,-60.17139 43.12246,-109.45462l0,0.00001z" id="svg_19"/>
      </g>
     </g>
    </g>
   </g>
  </g>
 </g>
</svg>