<svg fill="none" height="512" viewBox="0 0 630 630" width="512" xmlns="http://www.w3.org/2000/svg">
  <rect fill="none" id="canvas_background" height="602" width="802" y="-1" x="-1"/>
  <rect width="512" rx="50" rx="50" height="512" fill="#f7df1e"/>
  <rect width="512" rx="50" rx="50" height="512" fill="#f7df1e"/>
  <path fill-rule="evenodd" clip-rule="evenodd" d="m333.17602,407.49917c10.61163,17.13535 24.41761,29.73049 48.83522,29.73049c20.51247,0 33.61603,-10.13896 33.61603,-24.14827c0,-16.78801 -13.46313,-22.73411 -36.04106,-32.50092l-12.37605,-5.25142c-35.7233,-15.05132 -59.45521,-33.90682 -59.45521,-73.768c0,-36.7186 28.28931,-64.67105 72.50023,-64.67105c31.4753,0 54.1034,10.83364 70.40969,39.19959l-38.54972,24.47907c-8.48763,-15.05132 -17.64423,-20.98088 -31.85996,-20.98088c-14.50005,0 -23.6901,9.09695 -23.6901,20.98088c0,14.68744 9.19842,20.63354 30.43839,29.73049l12.37605,5.24315c42.06184,17.83829 65.81048,36.02392 65.81048,76.91058c0,44.07886 -35.01251,68.22713 -82.03314,68.22713c-45.97535,0 -75.67787,-21.66728 -90.21136,-50.06631l40.23052,-23.11452zm-174.87859,4.24249c7.77684,13.64543 14.85126,25.18201 31.85996,25.18201c16.26447,0 26.52488,-6.29344 26.52488,-30.76423l0,-166.47419l49.5042,0l0,167.13579c0,50.69482 -30.05373,73.768 -73.92181,73.768c-39.63681,0 -62.59103,-20.2862 -74.26466,-44.71978l40.29742,-24.12759z" fill="#000"/>
</svg>